<svg width="251" height="40" viewBox="0 0 251 40" fill="none" xmlns="http://www.w3.org/2000/svg">
<g clip-path="url(#clip0_92_107)">
<path d="M0.8875 0.0626511C1.3625 0.287651 1.8375 0.525151 2.3 0.750151C4.5 1.81265 6.6875 2.88765 8.8875 3.95015C11.9375 5.42515 14.975 6.91265 18.025 8.38765C20.875 9.77515 23.725 11.1627 26.575 12.5377C28.75 13.6002 30.925 14.7127 33.175 15.6127C31.575 15.2877 29.8875 15.7752 28.4125 16.4002C27.1375 16.9502 25.9125 17.6252 24.65 18.2127C23.275 18.8502 21.6875 18.8502 20.3 18.2377L7.775 12.6752C3.05 10.5877 0 5.85015 0 0.625151C0 0.162651 0.475 -0.137349 0.8875 0.0626511Z" fill="url(#paint0_linear_92_107)"/>
<path d="M39.125 21.4625L5.375 37.95L1.3875 39.9C0.75 40.2125 0 39.7375 0 39.025V37.6625C0 33.85 2.0875 30.375 5.375 28.6C5.6 28.475 5.825 28.3751 6.05 28.2626L24.25 20L30 17.425C30.425 17.2375 30.8625 17.0875 31.3125 16.975C32.1875 16.75 33.0875 16.675 33.9875 16.75C34.975 16.8375 35.9375 17.1 36.85 17.5375L39.125 18.6375C40.3 19.2125 40.3 20.9 39.125 21.4625Z" fill="url(#paint1_linear_92_107)"/>
<path d="M61.1875 27.125L59.3375 22.9625L53.4125 9.78745C52.225 7.12495 49.5875 5.39995 46.675 5.39995H45.7C45.175 5.39995 44.8375 5.94995 45.0625 6.41245L58.2875 33.7374C58.6875 34.5875 59.9 34.575 60.3125 33.725L61.1 32.0875C61.85 30.525 61.8875 28.7125 61.1875 27.125ZM73.2125 5.39995C69.475 5.39995 66.0875 7.61245 64.575 11.0375L60.5875 20.1C60.15 21.1125 60.15 22.25 60.6 23.25C61.025 24.1625 61.5125 25.05 61.9 25.975C62.3625 27.05 62.7 28.275 62.475 29.425C63.1125 27.8 63.925 26.225 64.675 24.65C65.675 22.5875 66.6625 20.525 67.65 18.4625C68.7125 16.25 69.775 14.05 70.8375 11.8375C71.6 10.25 72.3625 8.66245 73.125 7.07495C73.3 6.73745 73.4625 6.38745 73.625 6.04995C73.7625 5.74995 73.55 5.39995 73.2125 5.39995ZM208.25 5.39995V28.55C208.25 31.8875 210.963 34.6 214.3 34.6V11.45C214.3 8.11245 211.588 5.39995 208.25 5.39995ZM193.413 28.75V11.45C193.413 8.11245 190.7 5.39995 187.363 5.39995V34.6H206.05V28.75H193.413ZM185.163 11.25V5.39995H166.488V34.6H172.525V23.65H182.888V17.8375H172.525V11.25H185.163ZM148.725 5.01245C140.25 5.01245 133.7 11.5625 133.7 20C133.7 28.4375 140.213 34.9874 148.725 34.9874C157.238 34.9874 163.838 28.475 163.838 20C163.838 11.525 157.2 5.01245 148.725 5.01245ZM148.725 29.025C143.7 29.025 139.9 25.175 139.9 20C139.9 14.825 143.625 10.975 148.725 10.975C153.825 10.975 157.6 14.8125 157.6 20C157.6 25.1875 153.75 29.025 148.725 29.025ZM132.238 11.2125V5.39995H113.163V34.6H132.238V28.7875H119.213V22.475H130.7V17.0125H119.213V11.2125H132.238ZM94.3125 5.39995H84.3875V34.6H94.3125C104 34.6 110.488 28.75 110.488 20C110.488 11.25 104 5.39995 94.3125 5.39995ZM95.175 28.75H90.425V11.25H95.175C100.55 11.25 104.288 14.8125 104.288 20C104.288 25.1875 100.55 28.75 95.175 28.75ZM74.4875 5.39995V34.6H80.5375V11.45C80.5375 8.11245 77.825 5.39995 74.4875 5.39995ZM233.575 23.8L243.938 34.4875H242.025C238.625 34.4875 235.363 33.125 232.975 30.7125L229.963 27.6624L229.413 27.1749L227.375 29.2374C224.825 31.8125 222.625 33.525 218.8 34.1875C217.913 34.3375 217.113 33.65 217.113 32.75C217.113 32.375 217.263 32 217.538 31.7249L225.825 23.45L225.938 23.3625L225.175 22.575L220.8 18.15H220.813C218.375 15.6875 217 12.3625 217 8.89995C217 8.19995 217.85 7.84995 218.35 8.34995L229.5 19.6375L230.25 18.8625L231.538 17.5625L239.325 9.76245C242.038 7.03745 245.738 5.51245 249.588 5.51245H250.825L234.5 21.875L234.225 22.15L233.063 23.35L233.575 23.8Z" fill="url(#paint2_linear_92_107)"/>
</g>
<defs>
<linearGradient id="paint0_linear_92_107" x1="16.5875" y1="18.7001" x2="16.5875" y2="0.000150967" gradientUnits="userSpaceOnUse">
<stop stop-color="#3547FF"/>
<stop offset="1" stop-color="#8903FF"/>
</linearGradient>
<linearGradient id="paint1_linear_92_107" x1="-1.175" y1="37.5" x2="37.575" y2="16.875" gradientUnits="userSpaceOnUse">
<stop stop-color="#8903FF"/>
<stop offset="1" stop-color="#3547FF"/>
</linearGradient>
<linearGradient id="paint2_linear_92_107" x1="31.6" y1="37.1874" x2="260.925" y2="2.24994" gradientUnits="userSpaceOnUse">
<stop stop-color="#8903FF"/>
<stop offset="1" stop-color="#3547FF"/>
</linearGradient>
<clipPath id="clip0_92_107">
<rect width="250.825" height="40" fill="white"/>
</clipPath>
</defs>
</svg>
